<mxfile host="app.diagrams.net" modified="2024-07-09T05:24:09.545Z" agent="Mozilla/5.0 (Windows NT 10.0; Win64; x64) AppleWebKit/537.36 (KHTML, like Gecko) Chrome/126.0.0.0 Safari/537.36" etag="vQ4gv9o_62h7sCJXilkD" version="24.6.4" type="device">
  <diagram name="Page-1" id="vKnvFzmTKHOQt8USi0nz">
    <mxGraphModel dx="1434" dy="756" grid="1" gridSize="10" guides="1" tooltips="1" connect="1" arrows="1" fold="1" page="1" pageScale="1" pageWidth="827" pageHeight="1169" math="0" shadow="0">
      <root>
        <mxCell id="0" />
        <mxCell id="1" parent="0" />
        <mxCell id="ibxYiAemsdyk4QUqvHz9-1" value="Inicio" style="ellipse;whiteSpace=wrap;html=1;fillColor=#ffe6cc;strokeColor=#d79b00;" vertex="1" parent="1">
          <mxGeometry x="340" y="20" width="160" height="30" as="geometry" />
        </mxCell>
        <mxCell id="ibxYiAemsdyk4QUqvHz9-2" value="Posicion LuzX (lightX)&lt;div&gt;Posicion LuzY (lightY)&lt;/div&gt;&lt;div&gt;Posicion thorX (initialTx)&lt;/div&gt;&lt;div&gt;Posicion thorY (initialTy)&lt;/div&gt;&lt;div&gt;turns&lt;/div&gt;" style="shape=parallelogram;perimeter=parallelogramPerimeter;whiteSpace=wrap;html=1;fixedSize=1;fillColor=#fff2cc;strokeColor=#d6b656;" vertex="1" parent="1">
          <mxGeometry x="328.75" y="70" width="182.5" height="80" as="geometry" />
        </mxCell>
        <mxCell id="ibxYiAemsdyk4QUqvHz9-3" value="X = lightX - InitialTx&lt;div&gt;Y = lightY - initialTy&lt;/div&gt;&lt;div&gt;direction = &#39; &#39;&lt;/div&gt;" style="shape=parallelogram;perimeter=parallelogramPerimeter;whiteSpace=wrap;html=1;fixedSize=1;fillColor=#fff2cc;strokeColor=#d6b656;" vertex="1" parent="1">
          <mxGeometry x="340.5" y="170" width="159" height="50" as="geometry" />
        </mxCell>
        <mxCell id="ibxYiAemsdyk4QUqvHz9-5" value="while (turns &amp;gt; 0)" style="rhombus;whiteSpace=wrap;html=1;fillColor=#fff2cc;strokeColor=#d6b656;" vertex="1" parent="1">
          <mxGeometry x="364" y="950" width="116" height="80" as="geometry" />
        </mxCell>
        <mxCell id="ibxYiAemsdyk4QUqvHz9-6" value="if (Y&amp;gt;0)" style="rhombus;whiteSpace=wrap;html=1;fillColor=#d5e8d4;strokeColor=#82b366;" vertex="1" parent="1">
          <mxGeometry x="380" y="240" width="80" height="80" as="geometry" />
        </mxCell>
        <mxCell id="ibxYiAemsdyk4QUqvHz9-8" value="direction += &#39;S&#39;&lt;div&gt;Y - 1&lt;/div&gt;" style="rounded=0;whiteSpace=wrap;html=1;fillColor=#d5e8d4;strokeColor=#82b366;" vertex="1" parent="1">
          <mxGeometry x="355" y="340" width="130" height="30" as="geometry" />
        </mxCell>
        <mxCell id="ibxYiAemsdyk4QUqvHz9-9" value="&lt;pre id=&quot;empty-setup-push-repo-echo&quot; class=&quot;copyable-terminal-content f5&quot; style=&quot;box-sizing: border-box; font-family: var(--fontStack-monospace, ui-monospace, SFMono-Regular, SF Mono, Menlo, Consolas, Liberation Mono, monospace); font-size: 14px; margin-top: 0px; margin-bottom: 0px; overflow: auto; color: rgb(251, 252, 253); font-style: normal; font-variant-ligatures: normal; font-variant-caps: normal; font-weight: 400; letter-spacing: normal; orphans: 2; text-align: start; text-indent: 0px; text-transform: none; widows: 2; word-spacing: 0px; -webkit-text-stroke-width: 0px; text-decoration-thickness: initial; text-decoration-style: initial; text-decoration-color: initial;&quot;&gt;&lt;span class=&quot;user-select-contain&quot; style=&quot;box-sizing: border-box;&quot;&gt;git push -u origin main&lt;/span&gt;&lt;/pre&gt;" style="text;whiteSpace=wrap;html=1;" vertex="1" parent="1">
          <mxGeometry x="450" y="460" width="210" height="40" as="geometry" />
        </mxCell>
        <mxCell id="ibxYiAemsdyk4QUqvHz9-10" value="else if (Y&amp;lt;0)" style="rhombus;whiteSpace=wrap;html=1;fillColor=#d5e8d4;strokeColor=#82b366;" vertex="1" parent="1">
          <mxGeometry x="380" y="390" width="80" height="80" as="geometry" />
        </mxCell>
        <mxCell id="ibxYiAemsdyk4QUqvHz9-11" value="direction += &#39;N&#39;&lt;div&gt;Y + 1&lt;/div&gt;" style="rounded=0;whiteSpace=wrap;html=1;fillColor=#d5e8d4;strokeColor=#82b366;" vertex="1" parent="1">
          <mxGeometry x="355" y="490" width="130" height="30" as="geometry" />
        </mxCell>
        <mxCell id="ibxYiAemsdyk4QUqvHz9-12" value="if (X&amp;gt;0)" style="rhombus;whiteSpace=wrap;html=1;fillColor=#dae8fc;strokeColor=#6c8ebf;" vertex="1" parent="1">
          <mxGeometry x="381" y="543" width="80" height="80" as="geometry" />
        </mxCell>
        <mxCell id="ibxYiAemsdyk4QUqvHz9-13" value="direction += &#39;E&#39;&lt;div&gt;X - 1&lt;/div&gt;" style="rounded=0;whiteSpace=wrap;html=1;fillColor=#dae8fc;strokeColor=#6c8ebf;" vertex="1" parent="1">
          <mxGeometry x="357" y="638" width="130" height="35" as="geometry" />
        </mxCell>
        <mxCell id="ibxYiAemsdyk4QUqvHz9-14" value="else if (X&amp;lt;0)" style="rhombus;whiteSpace=wrap;html=1;fillColor=#dae8fc;strokeColor=#6c8ebf;" vertex="1" parent="1">
          <mxGeometry x="382" y="693" width="80" height="80" as="geometry" />
        </mxCell>
        <mxCell id="ibxYiAemsdyk4QUqvHz9-15" value="direction += &#39;W&#39;&lt;div&gt;X + 1&lt;/div&gt;" style="rounded=0;whiteSpace=wrap;html=1;fillColor=#dae8fc;strokeColor=#6c8ebf;" vertex="1" parent="1">
          <mxGeometry x="357" y="793" width="130" height="30" as="geometry" />
        </mxCell>
        <mxCell id="ibxYiAemsdyk4QUqvHz9-16" value="direction (se movera en la direccion indicada)" style="shape=document;whiteSpace=wrap;html=1;boundedLbl=1;fillColor=#e1d5e7;strokeColor=#9673a6;" vertex="1" parent="1">
          <mxGeometry x="362" y="850" width="120" height="80" as="geometry" />
        </mxCell>
        <mxCell id="ibxYiAemsdyk4QUqvHz9-17" value="direction = &#39; &#39;" style="rounded=0;whiteSpace=wrap;html=1;fillColor=#fff2cc;strokeColor=#d6b656;" vertex="1" parent="1">
          <mxGeometry x="90" y="563" width="120" height="60" as="geometry" />
        </mxCell>
        <mxCell id="ibxYiAemsdyk4QUqvHz9-18" value="" style="endArrow=classic;html=1;rounded=0;exitX=0.5;exitY=1;exitDx=0;exitDy=0;entryX=0.5;entryY=0;entryDx=0;entryDy=0;" edge="1" parent="1" source="ibxYiAemsdyk4QUqvHz9-1" target="ibxYiAemsdyk4QUqvHz9-2">
          <mxGeometry width="50" height="50" relative="1" as="geometry">
            <mxPoint x="610" y="210" as="sourcePoint" />
            <mxPoint x="660" y="160" as="targetPoint" />
          </mxGeometry>
        </mxCell>
        <mxCell id="ibxYiAemsdyk4QUqvHz9-19" value="" style="endArrow=classic;html=1;rounded=0;entryX=0.5;entryY=0;entryDx=0;entryDy=0;exitX=0.5;exitY=1;exitDx=0;exitDy=0;" edge="1" parent="1" source="ibxYiAemsdyk4QUqvHz9-2" target="ibxYiAemsdyk4QUqvHz9-3">
          <mxGeometry width="50" height="50" relative="1" as="geometry">
            <mxPoint x="390" y="210" as="sourcePoint" />
            <mxPoint x="440" y="160" as="targetPoint" />
          </mxGeometry>
        </mxCell>
        <mxCell id="ibxYiAemsdyk4QUqvHz9-20" value="" style="endArrow=classic;html=1;rounded=0;entryX=0.5;entryY=0;entryDx=0;entryDy=0;exitX=0.5;exitY=1;exitDx=0;exitDy=0;" edge="1" parent="1" source="ibxYiAemsdyk4QUqvHz9-3" target="ibxYiAemsdyk4QUqvHz9-6">
          <mxGeometry width="50" height="50" relative="1" as="geometry">
            <mxPoint x="390" y="310" as="sourcePoint" />
            <mxPoint x="440" y="260" as="targetPoint" />
          </mxGeometry>
        </mxCell>
        <mxCell id="ibxYiAemsdyk4QUqvHz9-21" value="" style="endArrow=classic;html=1;rounded=0;entryX=0.5;entryY=0;entryDx=0;entryDy=0;exitX=0.5;exitY=1;exitDx=0;exitDy=0;fillColor=#d5e8d4;strokeColor=#82b366;" edge="1" parent="1" source="ibxYiAemsdyk4QUqvHz9-6" target="ibxYiAemsdyk4QUqvHz9-8">
          <mxGeometry width="50" height="50" relative="1" as="geometry">
            <mxPoint x="390" y="310" as="sourcePoint" />
            <mxPoint x="440" y="260" as="targetPoint" />
          </mxGeometry>
        </mxCell>
        <mxCell id="ibxYiAemsdyk4QUqvHz9-22" value="" style="endArrow=classic;html=1;rounded=0;entryX=0.5;entryY=0;entryDx=0;entryDy=0;exitX=0.5;exitY=1;exitDx=0;exitDy=0;fillColor=#d5e8d4;strokeColor=#82b366;" edge="1" parent="1" source="ibxYiAemsdyk4QUqvHz9-8" target="ibxYiAemsdyk4QUqvHz9-10">
          <mxGeometry width="50" height="50" relative="1" as="geometry">
            <mxPoint x="390" y="510" as="sourcePoint" />
            <mxPoint x="440" y="460" as="targetPoint" />
          </mxGeometry>
        </mxCell>
        <mxCell id="ibxYiAemsdyk4QUqvHz9-23" value="" style="endArrow=classic;html=1;rounded=0;entryX=0.5;entryY=0;entryDx=0;entryDy=0;exitX=0.5;exitY=1;exitDx=0;exitDy=0;fillColor=#d5e8d4;strokeColor=#82b366;" edge="1" parent="1" source="ibxYiAemsdyk4QUqvHz9-10" target="ibxYiAemsdyk4QUqvHz9-11">
          <mxGeometry width="50" height="50" relative="1" as="geometry">
            <mxPoint x="390" y="510" as="sourcePoint" />
            <mxPoint x="440" y="460" as="targetPoint" />
          </mxGeometry>
        </mxCell>
        <mxCell id="ibxYiAemsdyk4QUqvHz9-24" value="" style="endArrow=classic;html=1;rounded=0;entryX=0.5;entryY=0;entryDx=0;entryDy=0;exitX=0.5;exitY=1;exitDx=0;exitDy=0;" edge="1" parent="1" source="ibxYiAemsdyk4QUqvHz9-11" target="ibxYiAemsdyk4QUqvHz9-12">
          <mxGeometry width="50" height="50" relative="1" as="geometry">
            <mxPoint x="390" y="510" as="sourcePoint" />
            <mxPoint x="440" y="460" as="targetPoint" />
          </mxGeometry>
        </mxCell>
        <mxCell id="ibxYiAemsdyk4QUqvHz9-25" value="" style="endArrow=classic;html=1;rounded=0;entryX=0.5;entryY=0;entryDx=0;entryDy=0;exitX=0.5;exitY=1;exitDx=0;exitDy=0;fillColor=#dae8fc;strokeColor=#6c8ebf;" edge="1" parent="1" source="ibxYiAemsdyk4QUqvHz9-12" target="ibxYiAemsdyk4QUqvHz9-13">
          <mxGeometry width="50" height="50" relative="1" as="geometry">
            <mxPoint x="390" y="710" as="sourcePoint" />
            <mxPoint x="440" y="660" as="targetPoint" />
          </mxGeometry>
        </mxCell>
        <mxCell id="ibxYiAemsdyk4QUqvHz9-26" value="" style="endArrow=classic;html=1;rounded=0;entryX=0.5;entryY=0;entryDx=0;entryDy=0;exitX=0.5;exitY=1;exitDx=0;exitDy=0;fillColor=#dae8fc;strokeColor=#6c8ebf;" edge="1" parent="1" source="ibxYiAemsdyk4QUqvHz9-13" target="ibxYiAemsdyk4QUqvHz9-14">
          <mxGeometry width="50" height="50" relative="1" as="geometry">
            <mxPoint x="390" y="710" as="sourcePoint" />
            <mxPoint x="440" y="660" as="targetPoint" />
          </mxGeometry>
        </mxCell>
        <mxCell id="ibxYiAemsdyk4QUqvHz9-27" value="" style="endArrow=classic;html=1;rounded=0;entryX=0.5;entryY=0;entryDx=0;entryDy=0;exitX=0.5;exitY=1;exitDx=0;exitDy=0;fillColor=#dae8fc;strokeColor=#6c8ebf;" edge="1" parent="1" source="ibxYiAemsdyk4QUqvHz9-14" target="ibxYiAemsdyk4QUqvHz9-15">
          <mxGeometry width="50" height="50" relative="1" as="geometry">
            <mxPoint x="390" y="710" as="sourcePoint" />
            <mxPoint x="440" y="660" as="targetPoint" />
          </mxGeometry>
        </mxCell>
        <mxCell id="ibxYiAemsdyk4QUqvHz9-28" value="" style="endArrow=classic;html=1;rounded=0;entryX=0.5;entryY=0;entryDx=0;entryDy=0;exitX=0.508;exitY=0.888;exitDx=0;exitDy=0;exitPerimeter=0;" edge="1" parent="1" source="ibxYiAemsdyk4QUqvHz9-16" target="ibxYiAemsdyk4QUqvHz9-5">
          <mxGeometry width="50" height="50" relative="1" as="geometry">
            <mxPoint x="390" y="910" as="sourcePoint" />
            <mxPoint x="440" y="860" as="targetPoint" />
          </mxGeometry>
        </mxCell>
        <mxCell id="ibxYiAemsdyk4QUqvHz9-29" value="" style="endArrow=classic;html=1;rounded=0;entryX=0.5;entryY=0;entryDx=0;entryDy=0;exitX=0.5;exitY=1;exitDx=0;exitDy=0;" edge="1" parent="1" source="ibxYiAemsdyk4QUqvHz9-15" target="ibxYiAemsdyk4QUqvHz9-16">
          <mxGeometry width="50" height="50" relative="1" as="geometry">
            <mxPoint x="390" y="910" as="sourcePoint" />
            <mxPoint x="440" y="860" as="targetPoint" />
          </mxGeometry>
        </mxCell>
        <mxCell id="ibxYiAemsdyk4QUqvHz9-30" value="" style="endArrow=classic;html=1;rounded=0;entryX=0.5;entryY=1;entryDx=0;entryDy=0;exitX=0;exitY=0.5;exitDx=0;exitDy=0;" edge="1" parent="1" source="ibxYiAemsdyk4QUqvHz9-5" target="ibxYiAemsdyk4QUqvHz9-17">
          <mxGeometry width="50" height="50" relative="1" as="geometry">
            <mxPoint x="390" y="910" as="sourcePoint" />
            <mxPoint x="440" y="860" as="targetPoint" />
            <Array as="points">
              <mxPoint x="150" y="990" />
            </Array>
          </mxGeometry>
        </mxCell>
        <mxCell id="ibxYiAemsdyk4QUqvHz9-31" value="" style="endArrow=classic;html=1;rounded=0;entryX=0;entryY=0.5;entryDx=0;entryDy=0;exitX=0.5;exitY=0;exitDx=0;exitDy=0;" edge="1" parent="1" source="ibxYiAemsdyk4QUqvHz9-17" target="ibxYiAemsdyk4QUqvHz9-6">
          <mxGeometry width="50" height="50" relative="1" as="geometry">
            <mxPoint x="390" y="410" as="sourcePoint" />
            <mxPoint x="440" y="360" as="targetPoint" />
            <Array as="points">
              <mxPoint x="150" y="280" />
            </Array>
          </mxGeometry>
        </mxCell>
        <mxCell id="ibxYiAemsdyk4QUqvHz9-32" value="Fin" style="ellipse;whiteSpace=wrap;html=1;fillColor=#ffe6cc;strokeColor=#d79b00;" vertex="1" parent="1">
          <mxGeometry x="377" y="1060" width="90" height="30" as="geometry" />
        </mxCell>
        <mxCell id="ibxYiAemsdyk4QUqvHz9-33" value="" style="endArrow=classic;html=1;rounded=0;entryX=0.5;entryY=0;entryDx=0;entryDy=0;exitX=0.5;exitY=1;exitDx=0;exitDy=0;" edge="1" parent="1" source="ibxYiAemsdyk4QUqvHz9-5" target="ibxYiAemsdyk4QUqvHz9-32">
          <mxGeometry width="50" height="50" relative="1" as="geometry">
            <mxPoint x="400" y="940" as="sourcePoint" />
            <mxPoint x="440" y="860" as="targetPoint" />
          </mxGeometry>
        </mxCell>
        <mxCell id="ibxYiAemsdyk4QUqvHz9-34" value="" style="endArrow=none;dashed=1;html=1;dashPattern=1 3;strokeWidth=2;rounded=0;exitX=0.333;exitY=1.25;exitDx=0;exitDy=0;exitPerimeter=0;" edge="1" parent="1" source="ibxYiAemsdyk4QUqvHz9-9">
          <mxGeometry width="50" height="50" relative="1" as="geometry">
            <mxPoint x="660" y="430" as="sourcePoint" />
            <mxPoint x="520" y="280" as="targetPoint" />
            <Array as="points">
              <mxPoint x="600" y="510" />
              <mxPoint x="600" y="280" />
            </Array>
          </mxGeometry>
        </mxCell>
        <mxCell id="ibxYiAemsdyk4QUqvHz9-35" value="" style="endArrow=classic;html=1;rounded=0;" edge="1" parent="1">
          <mxGeometry width="50" height="50" relative="1" as="geometry">
            <mxPoint x="600" y="400" as="sourcePoint" />
            <mxPoint x="640" y="400" as="targetPoint" />
          </mxGeometry>
        </mxCell>
        <mxCell id="ibxYiAemsdyk4QUqvHz9-36" value="Determinaremos la&amp;nbsp;&lt;div&gt;direccion de Y&lt;/div&gt;" style="text;html=1;align=center;verticalAlign=middle;resizable=0;points=[];autosize=1;strokeColor=none;fillColor=none;" vertex="1" parent="1">
          <mxGeometry x="640" y="380" width="130" height="40" as="geometry" />
        </mxCell>
        <mxCell id="ibxYiAemsdyk4QUqvHz9-37" value="" style="endArrow=none;dashed=1;html=1;dashPattern=1 3;strokeWidth=2;rounded=0;exitX=0.333;exitY=1.25;exitDx=0;exitDy=0;exitPerimeter=0;" edge="1" parent="1">
          <mxGeometry width="50" height="50" relative="1" as="geometry">
            <mxPoint x="520" y="810" as="sourcePoint" />
            <mxPoint x="520" y="580" as="targetPoint" />
            <Array as="points">
              <mxPoint x="600" y="810" />
              <mxPoint x="600" y="580" />
            </Array>
          </mxGeometry>
        </mxCell>
        <mxCell id="ibxYiAemsdyk4QUqvHz9-38" value="" style="endArrow=classic;html=1;rounded=0;" edge="1" parent="1">
          <mxGeometry width="50" height="50" relative="1" as="geometry">
            <mxPoint x="600" y="700" as="sourcePoint" />
            <mxPoint x="640" y="700" as="targetPoint" />
          </mxGeometry>
        </mxCell>
        <mxCell id="ibxYiAemsdyk4QUqvHz9-39" value="Determinaremos la&amp;nbsp;&lt;div&gt;direccion de X&lt;/div&gt;" style="text;html=1;align=center;verticalAlign=middle;resizable=0;points=[];autosize=1;strokeColor=none;fillColor=none;" vertex="1" parent="1">
          <mxGeometry x="640" y="680" width="130" height="40" as="geometry" />
        </mxCell>
        <mxCell id="ibxYiAemsdyk4QUqvHz9-40" value="" style="endArrow=classic;html=1;rounded=0;" edge="1" parent="1">
          <mxGeometry width="50" height="50" relative="1" as="geometry">
            <mxPoint x="530" y="880" as="sourcePoint" />
            <mxPoint x="590" y="880" as="targetPoint" />
          </mxGeometry>
        </mxCell>
        <mxCell id="ibxYiAemsdyk4QUqvHz9-41" value="Indica la direccion del&lt;div&gt;movimiento que tomara thor&lt;/div&gt;&lt;div&gt;en el turno actual&lt;/div&gt;" style="text;html=1;align=center;verticalAlign=middle;resizable=0;points=[];autosize=1;strokeColor=none;fillColor=none;" vertex="1" parent="1">
          <mxGeometry x="600" y="850" width="170" height="60" as="geometry" />
        </mxCell>
      </root>
    </mxGraphModel>
  </diagram>
</mxfile>
